HIERARCHY
ROOT Hips
{
	OFFSET -0.001795 -0.223333 0.028219
	CHANNELS 6 Xposition Yposition Zposition Zrotation Yrotation Xrotation 
	JOINT LeftUpLeg
	{
		OFFSET 0.069520 -0.091406 -0.006815
		CHANNELS 3 Zrotation Yrotation Xrotation
		JOINT LeftLeg
		{
			OFFSET 0.034277 -0.375199 -0.004496
			CHANNELS 3 Zrotation Yrotation Xrotation
			JOINT LeftFoot
			{
				OFFSET -0.013596 -0.397961 -0.043693
				CHANNELS 3 Zrotation Yrotation Xrotation
				JOINT LeftToe
				{
					OFFSET 0.026358 -0.055791 0.119288
					CHANNELS 3 Zrotation Yrotation Xrotation
					End Site
					{
						OFFSET 0.000000 0.000000 0.000000
					}
				}
			}
		}
	}
	JOINT RightUpLeg
	{
		OFFSET -0.067670 -0.090522 -0.004320
		CHANNELS 3 Zrotation Yrotation Xrotation
		JOINT RightLeg
		{
			OFFSET -0.038290 -0.382569 -0.008850
			CHANNELS 3 Zrotation Yrotation Xrotation
			JOINT RightFoot
			{
				OFFSET 0.015774 -0.398415 -0.042312
				CHANNELS 3 Zrotation Yrotation Xrotation
				JOINT RightToe
				{
					OFFSET -0.025372 -0.048144 0.123348
					CHANNELS 3 Zrotation Yrotation Xrotation
					End Site
					{
						OFFSET 0.000000 0.000000 0.000000
					}
				}
			}
		}
	}
	JOINT Spine
	{
		OFFSET -0.002533 0.108963 -0.026696
		CHANNELS 3 Zrotation Yrotation Xrotation
		JOINT Spine1
		{
			OFFSET 0.005487 0.135180 0.001092
			CHANNELS 3 Zrotation Yrotation Xrotation
			JOINT Spine2
			{
				OFFSET 0.001457 0.052922 0.025425
				CHANNELS 3 Zrotation Yrotation Xrotation
				JOINT Neck
				{
					OFFSET -0.002778 0.213870 -0.042857
					CHANNELS 3 Zrotation Yrotation Xrotation
					JOINT Head
					{
						OFFSET 0.005152 0.064970 0.051349
						CHANNELS 3 Zrotation Yrotation Xrotation
						End Site
						{
							OFFSET 0.000000 0.000000 0.000000
						}
					}
				}
				JOINT LeftShoulder
				{
					OFFSET 0.078845 0.121749 -0.034090
					CHANNELS 3 Zrotation Yrotation Xrotation
					JOINT LeftArm
					{
						OFFSET 0.090977 0.030469 -0.008868
						CHANNELS 3 Zrotation Yrotation Xrotation
						JOINT LeftForeArm
						{
							OFFSET 0.259612 -0.012772 -0.027456
							CHANNELS 3 Zrotation Yrotation Xrotation
							JOINT LeftHand
							{
								OFFSET 0.249234 0.008986 -0.001171
								CHANNELS 3 Zrotation Yrotation Xrotation
								End Site
								{
									OFFSET 0.000000 0.000000 0.000000
								}
							}
						}
					}
				}
				JOINT RightShoulder
				{
					OFFSET -0.081759 0.118833 -0.038615
					CHANNELS 3 Zrotation Yrotation Xrotation
					JOINT RightArm
					{
						OFFSET -0.096012 0.032551 -0.009143
						CHANNELS 3 Zrotation Yrotation Xrotation
						JOINT RightForeArm
						{
							OFFSET -0.253742 -0.013329 -0.021401
							CHANNELS 3 Zrotation Yrotation Xrotation
							JOINT RightHand
							{
								OFFSET -0.255298 0.007772 -0.005559
								CHANNELS 3 Zrotation Yrotation Xrotation
								End Site
								{
									OFFSET 0.000000 0.000000 0.000000
								}
							}
						}
					}
				}
			}
		}
	}
}
MOTION
Frames: 7
Frame Time: 0.050000
0.000000 0.947144 0.000000 -0.681911 2.000304 -0.776968 3.484610 0.049714 1.688120 -0.225955 0.021778 0.067347 0.147569 2.711071 5.361079 0.000000 0.000000 0.000000 -2.617512 0.261499 -2.792219 -0.939595 0.257028 3.281058 0.489925 -1.536729 5.991376 0.000000 0.000000 0.000000 3.020719 -0.142533 1.876976 -1.211648 0.616213 -1.545353 -2.230419 1.557048 7.301636 5.481862 -3.303713 -7.077547 0.000000 0.000000 0.000000 -12.635283 -3.556713 0.024981 -57.747143 -5.756140 -4.498684 -10.423818 -23.654671 2.961103 0.000000 0.000000 0.000000 13.313386 -2.033586 -1.616036 64.387045 3.888455 -4.304608 7.116680 25.757174 2.604522 0.000000 0.000000 0.000000 
-0.000121 0.947577 -0.000427 -0.725393 1.864565 -0.619578 3.449686 0.090730 2.371856 -0.386345 0.092616 -1.662593 0.526267 3.109348 4.593473 0.000000 0.000000 0.000000 -3.090737 0.255127 -2.731459 -0.012691 0.104173 2.657116 0.763313 -0.931892 5.967379 0.000000 0.000000 0.000000 3.302404 -0.125799 1.520206 -1.762216 0.863521 -1.066749 -2.069447 1.508885 7.071782 5.191100 -3.162638 -6.639855 0.000000 0.000000 0.000000 -13.144215 -3.155425 -0.190170 -57.913345 -5.742430 -4.483787 -9.175642 -24.248311 2.777625 0.000000 0.000000 0.000000 12.861764 -1.605991 -1.409623 65.817048 3.278694 -4.689456 6.702600 26.563843 2.595713 0.000000 0.000000 0.000000 
-0.000001 0.947097 -0.000816 -0.397686 1.920655 -0.789780 3.309268 0.085310 2.175571 -0.371826 0.054965 -0.490675 -0.127563 1.506537 3.771577 0.000000 0.000000 0.000000 -3.494361 0.267439 -2.981897 -0.072221 0.120413 2.872516 0.301273 -1.903463 5.839444 0.000000 0.000000 0.000000 2.959043 -0.124080 1.629137 -1.369958 0.705023 -2.393180 -2.492836 2.029240 8.006642 5.338460 -3.162913 -7.199344 0.000000 0.000000 0.000000 -12.644481 -3.783919 0.069562 -58.235107 -5.612910 -4.698931 -10.476736 -23.331923 2.919011 0.000000 0.000000 0.000000 14.134049 -1.095147 -1.114298 65.128860 3.465245 -4.650695 5.993988 25.537801 2.372995 0.000000 0.000000 0.000000 
0.000023 0.946666 -0.001061 -0.411441 2.080003 -1.000035 3.312630 0.092151 2.286913 -0.371493 0.057026 -0.559223 -0.300487 1.048419 3.487367 0.000000 0.000000 0.000000 -3.473513 0.276711 -3.156401 0.127728 0.119868 3.608878 0.401301 -1.565780 5.588727 0.000000 0.000000 0.000000 2.636514 -0.150470 2.174820 -1.450940 0.729363 -1.597378 -1.767393 1.560334 7.173534 5.221851 -3.212278 -6.465459 0.000000 0.000000 0.000000 -12.701219 -3.434986 -0.030766 -59.125865 -4.934359 -5.025476 -9.736153 -24.128901 2.881734 0.000000 0.000000 0.000000 13.496722 -0.611690 -0.949147 65.045188 3.170611 -4.744468 6.270255 26.331083 2.476321 0.000000 0.000000 0.000000 
-0.000056 0.946248 -0.001270 -0.357531 2.328445 -1.533429 3.005378 0.132900 2.742933 0.127928 0.005484 -0.528570 -0.141860 1.257287 3.233210 0.000000 0.000000 0.000000 -3.730130 0.236632 -2.722379 0.254213 0.104312 3.702034 -0.136314 -2.857165 5.866760 0.000000 0.000000 0.000000 2.421123 -0.176509 2.753155 -1.315118 0.669827 -1.618466 -1.500833 1.445713 7.329381 4.747911 -2.777353 -7.043791 0.000000 0.000000 0.000000 -12.896616 -3.757292 0.110634 -59.144712 -4.606160 -5.211721 -11.149692 -23.148872 3.053399 0.000000 0.000000 0.000000 13.280394 -0.173052 -0.725640 64.827630 3.148419 -4.774537 7.068160 26.694389 2.691518 0.000000 0.000000 0.000000 
-0.000386 0.945216 -0.001622 -0.446173 1.868966 -1.535053 3.096530 0.098113 2.165451 0.508248 -0.070610 0.412823 -0.058804 1.161670 2.695293 0.000000 0.000000 0.000000 -3.695728 0.299749 -3.597508 0.492285 0.105946 4.732931 -0.362131 -3.362688 5.791326 0.000000 0.000000 0.000000 2.198111 -0.201664 3.268068 -1.279290 0.653721 -1.771581 -0.928703 1.120349 7.663525 4.609639 -2.784395 -6.645587 0.000000 0.000000 0.000000 -12.911826 -3.934575 0.317949 -59.687473 -3.743857 -5.716937 -11.047696 -22.732711 3.016029 0.000000 0.000000 0.000000 12.546495 0.611623 -0.411760 65.548050 3.707046 -4.570433 6.778713 27.442119 2.680669 0.000000 0.000000 0.000000 
-0.000905 0.944138 -0.002781 -0.488726 1.068293 -1.557308 2.885922 0.077654 1.645305 1.043667 -0.180117 1.516255 0.284416 1.431609 1.801508 0.000000 0.000000 0.000000 -3.525825 0.386374 -4.733571 0.572435 0.155786 6.466983 -0.575561 -3.607487 5.031678 0.000000 0.000000 0.000000 2.259394 -0.240390 3.876776 -1.471900 0.742557 -2.057213 -0.773267 0.908142 8.407244 4.902859 -2.949597 -7.401083 0.000000 0.000000 0.000000 -12.819778 -4.091840 0.534632 -59.484109 -2.844620 -6.205241 -11.618263 -22.561719 3.146853 0.000000 0.000000 0.000000 12.905664 1.183944 -0.249783 65.061852 4.357126 -4.318568 7.259917 28.277339 2.863854 0.000000 0.000000 0.000000 
